<svg xmlns="http://www.w3.org/2000/svg" width="29.446" height="33.813"><g data-name="Group 5" transform="translate(-18.635 -314)"><path data-name="Path 20" d="M18.635 314h29.446v33.813H18.635Z" fill="none"/><path data-name="Path 21" d="M33.358 315.424a11 11 0 0 0-11.164 10.838c0 8.129 11.164 20.128 11.164 20.128s11.164-12 11.164-20.128a11 11 0 0 0-11.164-10.838Zm0 17.859c-4.91.022-6.574-4.018-6.61-6.6a6.384 6.384 0 0 1 6.61-6.5 6.363 6.363 0 0 1 6.577 6.5 6.329 6.329 0 0 1-6.577 6.6Z" fill="#467bae"/><circle data-name="Ellipse 2" cx="7.5" cy="7.5" r="7.5" transform="translate(26.135 318.93)" fill="#fff"/></g></svg>