<svg xmlns="http://www.w3.org/2000/svg" width="32.632" height="37.472"><g data-name="Group 3" transform="translate(0 .056)"><path data-name="Path 20" d="M0-.056h32.632v37.472H0Z" fill="none"/><path data-name="Path 21" d="M16.316 1.522A12.186 12.186 0 0 0 3.944 13.533c0 9.008 12.372 22.306 12.372 22.306s12.372-13.3 12.372-22.306A12.186 12.186 0 0 0 16.316 1.522Zm0 19.791c-5.441.025-7.285-4.453-7.326-7.309a7.075 7.075 0 0 1 7.326-7.2 7.051 7.051 0 0 1 7.288 7.2 7.013 7.013 0 0 1-7.288 7.309Z" fill="#a0c961"/><circle data-name="Ellipse 2" cx="8.311" cy="8.311" r="8.311" transform="translate(8.312 5.464)" fill="#fff"/></g></svg>